<?xml version="1.0" encoding="iso-8859-1"?>
<!-- Uploaded to: SVG Repo, www.svgrepo.com, Generator: SVG Repo Mixer Tools -->
<svg version="1.1" id="Capa_1" xmlns="http://www.w3.org/2000/svg" xmlns:xlink="http://www.w3.org/1999/xlink" 
	 viewBox="0 0 465 465" xml:space="preserve">
<g>
	<path style="fill:#FECC33;" d="M282.841,283.166h28.249l0,0c0-4.143,3.357-7.5,7.5-7.5s7.5,3.357,7.5,7.5l0,0h19.728l0,0
		c0-4.143,3.357-7.5,7.5-7.5s7.5,3.357,7.5,7.5l0,0h19.728l0,0c0-4.143,3.357-7.5,7.5-7.5s7.5,3.357,7.5,7.5l0,0h19.727l0,0
		c0-4.143,3.357-7.5,7.5-7.5s7.5,3.357,7.5,7.5l0,0H450v-41.867H273.271L282.841,283.166z"/>
	<path style="fill:#FECC33;" d="M191.728,241.299H15v41.867h19.727l0,0c0-4.143,3.358-7.5,7.5-7.5s7.5,3.357,7.5,7.5l0,0h19.728l0,0
		c0-4.143,3.358-7.5,7.5-7.5c4.142,0,7.5,3.357,7.5,7.5l0,0h19.727l0,0c0-4.143,3.358-7.5,7.5-7.5s7.5,3.357,7.5,7.5l0,0h19.728l0,0
		c0-4.143,3.358-7.5,7.5-7.5s7.5,3.357,7.5,7.5l0,0h28.249L191.728,241.299z"/>
	<rect x="84.455" y="283.166" style="fill:#FF9926;" width="19.727" height="41.867"/>
	<rect x="49.727" y="283.166" style="fill:#FF9926;" width="19.728" height="41.867"/>
	<rect x="15" y="283.166" style="fill:#FF9926;" width="19.727" height="41.867"/>
	<polygon style="fill:#FF9926;" points="292.412,325.033 311.091,325.033 311.091,283.166 282.841,283.166 	"/>
	<polygon style="fill:#FF9926;" points="153.909,283.166 153.909,325.033 172.588,325.033 182.158,283.166 	"/>
	<rect x="119.182" y="283.166" style="fill:#FF9926;" width="19.728" height="41.867"/>
	<rect x="326.091" y="283.166" style="fill:#FF9926;" width="19.728" height="41.867"/>
	<rect x="360.818" y="283.166" style="fill:#FF9926;" width="19.728" height="41.867"/>
	<rect x="395.546" y="283.166" style="fill:#FF9926;" width="19.727" height="41.867"/>
	<rect x="430.272" y="283.166" style="fill:#FF9926;" width="19.728" height="41.867"/>
	<polygon style="fill:#FECC33;" points="228.5,23.968 139.416,127.565 317.585,127.565 	"/>
	<path style="fill:#FF9926;" d="M203.636,165.065c0-4.143,3.358-7.5,7.5-7.5h42.727c4.143,0,7.5,3.357,7.5,7.5v61.233h153.909
		v-83.733H49.727v83.733h153.909V165.065z M288.591,191.616h99.455c4.143,0,7.5,3.357,7.5,7.5s-3.357,7.5-7.5,7.5h-99.455
		c-4.143,0-7.5-3.357-7.5-7.5S284.448,191.616,288.591,191.616z M176.409,206.616H76.955c-4.142,0-7.5-3.357-7.5-7.5
		s3.358-7.5,7.5-7.5h99.455c4.142,0,7.5,3.357,7.5,7.5S180.551,206.616,176.409,206.616z"/>
	<rect x="218.636" y="172.565" style="fill:#E43017;" width="27.727" height="53.733"/>
	<polygon style="fill:#FECC33;" points="257.884,241.299 207.115,241.299 158.83,452.533 306.17,452.533 	"/>
	<path d="M176.409,191.616H76.955c-4.142,0-7.5,3.357-7.5,7.5s3.358,7.5,7.5,7.5h99.455c4.142,0,7.5-3.357,7.5-7.5
		S180.551,191.616,176.409,191.616z"/>
	<path d="M288.591,206.616h99.455c4.143,0,7.5-3.357,7.5-7.5s-3.357-7.5-7.5-7.5h-99.455c-4.143,0-7.5,3.357-7.5,7.5
		S284.448,206.616,288.591,206.616z"/>
	<path d="M457.5,226.299h-27.228v-91.233c0-4.143-3.357-7.5-7.5-7.5h-85.405L234.187,7.575c-1.425-1.657-3.501-2.61-5.687-2.61
		c-2.186,0-4.262,0.953-5.687,2.61l-103.18,119.99H42.227c-4.142,0-7.5,3.357-7.5,7.5v91.233H7.5c-4.142,0-7.5,3.357-7.5,7.5v98.734
		c0,4.143,3.358,7.5,7.5,7.5h161.659l-25.334,110.829c-0.923,4.037,1.602,8.06,5.64,8.982c0.563,0.129,1.125,0.19,1.678,0.19
		c3.42,0,6.51-2.355,7.305-5.831l0.382-1.671l48.286-211.234h50.769l48.285,211.234l0.382,1.671
		c0.795,3.476,3.885,5.831,7.305,5.831c0.554,0,1.116-0.062,1.678-0.19c4.038-0.923,6.563-4.945,5.641-8.982l-25.334-110.829H457.5
		c4.143,0,7.5-3.357,7.5-7.5v-98.734C465,229.656,461.643,226.299,457.5,226.299z M450,283.166v41.867h-19.728v-41.867l0,0
		c0-4.143-3.357-7.5-7.5-7.5s-7.5,3.357-7.5,7.5l0,0v41.867h-19.727v-41.867l0,0c0-4.143-3.357-7.5-7.5-7.5s-7.5,3.357-7.5,7.5l0,0
		v41.867h-19.728v-41.867l0,0c0-4.143-3.357-7.5-7.5-7.5s-7.5,3.357-7.5,7.5l0,0v41.867h-19.728v-41.867l0,0
		c0-4.143-3.357-7.5-7.5-7.5s-7.5,3.357-7.5,7.5l0,0v41.867h-18.679l-9.57-41.867l-9.57-41.867H450V283.166z M172.588,325.033
		h-18.679v-41.867l0,0c0-4.143-3.358-7.5-7.5-7.5s-7.5,3.357-7.5,7.5l0,0v41.867h-19.728v-41.867l0,0c0-4.143-3.358-7.5-7.5-7.5
		s-7.5,3.357-7.5,7.5l0,0v41.867H84.455v-41.867l0,0c0-4.143-3.358-7.5-7.5-7.5c-4.142,0-7.5,3.357-7.5,7.5l0,0v41.867H49.727
		v-41.867l0,0c0-4.143-3.358-7.5-7.5-7.5s-7.5,3.357-7.5,7.5l0,0v41.867H15v-41.867v-41.867h176.728l-9.57,41.867L172.588,325.033z
		 M49.727,142.565h365.545v83.733H261.363v-61.233c0-4.143-3.357-7.5-7.5-7.5h-42.727c-4.142,0-7.5,3.357-7.5,7.5v61.233H49.727
		V142.565z M246.363,226.299h-27.727v-53.733h27.727V226.299z M228.5,23.968l89.085,103.598H139.416L228.5,23.968z"/>
</g>
</svg>