<?xml version="1.0" encoding="iso-8859-1"?>
<!-- Uploaded to: SVG Repo, www.svgrepo.com, Generator: SVG Repo Mixer Tools -->
<svg height="800px" width="800px" version="1.1" id="Layer_1" xmlns="http://www.w3.org/2000/svg" xmlns:xlink="http://www.w3.org/1999/xlink" 
	 viewBox="0 0 512 512" xml:space="preserve">
<path style="opacity:0.2;enable-background:new    ;" d="M138.917,308.383l-20.968,25.725l46.568,37.955
	c10.256-5.594,18.194-14.309,22.235-24.691L138.917,308.383z"/>
<path style="opacity:0.2;enable-background:new    ;" d="M373.297,261.16l-48.828,38.473c3.503,10.633,11.039,19.685,21.006,25.701
	l48.36-38.105L373.297,261.16z"/>
<polygon style="fill:#D68231;" points="373.297,261.16 283.117,332.216 283.117,205.745 221.501,205.745 221.501,375.694 
	138.917,308.383 117.95,334.109 221.501,418.508 221.501,489.535 283.117,489.535 283.117,374.469 393.837,287.228 "/>
<path style="opacity:0.2;enable-background:new    ;" d="M221.501,205.745V309.96c10.097,1.399,20.391,2.122,30.807,2.122
	c10.417,0,20.711-0.724,30.809-2.122V205.745L221.501,205.745L221.501,205.745z"/>
<ellipse style="fill:#00AD68;" cx="252.31" cy="147.082" rx="165.483" ry="139.072"/>
<ellipse style="fill:#7CDFA8;" cx="383.565" cy="274.193" rx="51.937" ry="47.055"/>
<g>
	<ellipse style="fill:#218649;" cx="128.435" cy="321.248" rx="51.937" ry="47.055"/>
	<path style="fill:#218649;" d="M331.457,483.247c0-5.704-4.667-10.371-10.372-10.371H183.531c-5.704,0-10.371,4.667-10.371,10.371
		v10.371c0,5.704,4.667,10.371,10.371,10.371h137.555c5.705,0,10.372-4.667,10.372-10.371v-10.371H331.457z"/>
</g>
<path style="fill:#7CDFA8;" d="M181.483,188.84c-9.268-9.27-39.48-18.482-41.023-16.939c-1.542,1.543,7.671,31.754,16.939,41.024
	c9.27,9.268,22.174,11.391,28.825,4.741C192.874,211.015,190.752,198.109,181.483,188.84z"/>
<g>
	<path style="fill:#218649;" d="M313.743,201.758c9.269-9.269,18.481-39.481,16.939-41.023c-1.543-1.544-31.755,7.67-41.023,16.939
		c-9.269,9.27-11.392,22.173-4.741,28.825C291.569,213.149,304.476,211.027,313.743,201.758z"/>
	<path style="fill:#218649;" d="M233.264,94.189c0-13.107-14.848-40.986-17.029-40.986c-2.182,0-17.03,27.877-17.03,40.986
		s7.625,23.735,17.03,23.735C225.639,117.924,233.264,107.299,233.264,94.189z"/>
</g>
<path style="fill:#7CDFA8;" d="M349.759,120.204c9.27-9.269,18.482-39.481,16.94-41.024c-1.542-1.542-31.755,7.671-41.023,16.939
	c-9.27,9.27-11.391,22.176-4.741,28.825C327.586,131.595,340.491,129.473,349.759,120.204z"/>
<path style="fill:#1E252B;" d="M401.838,221.757c15.716-22.553,23.965-48.121,23.965-74.674C425.803,65.981,347.973,0,252.308,0
	S78.813,65.981,78.813,147.082c0,69.791,57.639,128.382,134.68,143.368v68.382l-27.455-22.378c1.514-4.834,2.343-9.932,2.343-15.207
	c0-30.361-26.893-55.062-59.948-55.062c-33.054,0-59.947,24.7-59.947,55.062c0,30.361,26.893,55.062,59.947,55.062
	c8.26,0,16.134-1.542,23.301-4.33l61.757,50.335v42.554H183.53c-10.135,0-18.381,8.246-18.381,18.381v10.371
	c0,10.135,8.246,18.381,18.381,18.381h137.555c10.135,0,18.382-8.246,18.382-18.381v-10.371c0-10.135-8.247-18.381-18.382-18.381
	h-29.959v-86.512l68.267-53.791c7.401,3.007,15.574,4.693,24.174,4.693c33.054,0,59.947-24.7,59.947-55.062
	C443.514,249.685,425.984,228.872,401.838,221.757z M94.832,147.082c0-72.268,70.643-131.062,157.476-131.062
	s157.476,58.794,157.476,131.062c0,25.813-8.982,50.64-25.976,72.057c-0.08-0.001-0.159-0.005-0.24-0.005
	c-29.048,0-53.33,19.077-58.791,44.305c-22.255,9.621-47.228,14.706-72.468,14.706C165.475,278.145,94.832,219.35,94.832,147.082z
	 M325.679,288.483l-34.552,27.225v-25.279c11.337-2.197,22.396-5.345,32.97-9.411C324.44,283.563,324.968,286.057,325.679,288.483z
	 M128.433,360.287c-24.222,0-43.927-17.514-43.927-39.042c0-21.527,19.705-39.042,43.927-39.042
	c24.223,0,43.928,17.514,43.928,39.042C172.361,342.773,152.656,360.287,128.433,360.287z M321.085,480.885
	c1.28,0,2.362,1.082,2.362,2.361v10.371c0,1.281-1.082,2.361-2.362,2.361H183.531c-1.279,0-2.361-1.082-2.361-2.361v-10.371
	c0-1.279,1.082-2.361,2.361-2.361H321.085z M275.107,370.582v94.283h-45.595v-50.163l-62.759-51.152
	c4.635-3.549,8.671-7.73,11.97-12.393l50.789,41.397v-99.662c7.462,0.834,15.07,1.271,22.797,1.271
	c7.638,0,15.256-0.442,22.799-1.288v55.85l57.623-45.403c3.219,4.722,7.194,8.961,11.769,12.582L275.107,370.582z M383.567,313.236
	c-24.223,0-43.928-17.514-43.928-39.042c0-21.527,19.705-39.042,43.928-39.042c24.222,0,43.927,17.514,43.927,39.042
	C427.494,295.721,407.789,313.236,383.567,313.236z"/>
</svg>